<svg xmlns="http://www.w3.org/2000/svg" viewBox="0 0 256 256">
  <!-- Background gradient -->
  <defs>
    <linearGradient id="bg-gradient" x1="0%" y1="0%" x2="100%" y2="100%">
      <stop offset="0%" stop-color="#001B33" />
      <stop offset="100%" stop-color="#00142A" />
    </linearGradient>
    
    <!-- Glow effects -->
    <filter id="glow" x="-20%" y="-20%" width="140%" height="140%">
      <feGaussianBlur stdDeviation="3" result="blur" />
      <feComposite in="SourceGraphic" in2="blur" operator="over" />
    </filter>
    
    <!-- Aurora patterns -->
    <linearGradient id="aurora-green" x1="0%" y1="0%" x2="100%" y2="0%">
      <stop offset="0%" stop-color="#00C853" stop-opacity="0.7" />
      <stop offset="100%" stop-color="#00C853" stop-opacity="0.9" />
    </linearGradient>
    
    <linearGradient id="aurora-magenta" x1="0%" y1="0%" x2="100%" y2="0%">
      <stop offset="0%" stop-color="#D500F9" stop-opacity="0.7" />
      <stop offset="100%" stop-color="#D500F9" stop-opacity="0.9" />
    </linearGradient>
    
    <linearGradient id="aurora-blue" x1="0%" y1="0%" x2="100%" y2="0%">
      <stop offset="0%" stop-color="#00E5FF" stop-opacity="0.7" />
      <stop offset="100%" stop-color="#00E5FF" stop-opacity="0.9" />
    </linearGradient>
  </defs>
  
  <!-- Background -->
  <rect width="256" height="256" fill="url(#bg-gradient)" />
  
  <!-- Subtle star field -->
  <g>
    <circle cx="30" cy="40" r="1" fill="white" opacity="0.8" />
    <circle cx="60" cy="20" r="1" fill="white" opacity="0.6" />
    <circle cx="90" cy="35" r="1" fill="white" opacity="0.7" />
    <circle cx="120" cy="15" r="1" fill="white" opacity="0.9" />
    <circle cx="150" cy="25" r="1" fill="white" opacity="0.7" />
    <circle cx="180" cy="45" r="1" fill="white" opacity="0.6" />
    <circle cx="210" cy="30" r="1" fill="white" opacity="0.8" />
    <circle cx="240" cy="15" r="1" fill="white" opacity="0.7" />
    
    <circle cx="20" cy="70" r="1" fill="white" opacity="0.7" />
    <circle cx="50" cy="90" r="1" fill="white" opacity="0.8" />
    <circle cx="90" cy="75" r="1" fill="white" opacity="0.6" />
    <circle cx="130" cy="85" r="1" fill="white" opacity="0.7" />
    <circle cx="160" cy="65" r="1" fill="white" opacity="0.9" />
    <circle cx="200" cy="80" r="1" fill="white" opacity="0.6" />
    <circle cx="230" cy="70" r="1" fill="white" opacity="0.8" />
    
    <circle cx="25" cy="115" r="1" fill="white" opacity="0.8" />
    <circle cx="55" cy="135" r="1" fill="white" opacity="0.7" />
    <circle cx="85" cy="125" r="1" fill="white" opacity="0.6" />
    <circle cx="115" cy="145" r="1" fill="white" opacity="0.9" />
    <circle cx="145" cy="115" r="1" fill="white" opacity="0.7" />
    <circle cx="175" cy="130" r="1" fill="white" opacity="0.8" />
    <circle cx="215" cy="120" r="1" fill="white" opacity="0.6" />
    <circle cx="245" cy="135" r="1" fill="white" opacity="0.7" />
    
    <circle cx="35" cy="170" r="1" fill="white" opacity="0.6" />
    <circle cx="65" cy="185" r="1" fill="white" opacity="0.8" />
    <circle cx="95" cy="165" r="1" fill="white" opacity="0.7" />
    <circle cx="125" cy="180" r="1" fill="white" opacity="0.9" />
    <circle cx="155" cy="165" r="1" fill="white" opacity="0.7" />
    <circle cx="185" cy="185" r="1" fill="white" opacity="0.6" />
    <circle cx="225" cy="170" r="1" fill="white" opacity="0.8" />
    
    <circle cx="30" cy="210" r="1" fill="white" opacity="0.7" />
    <circle cx="60" cy="225" r="1" fill="white" opacity="0.6" />
    <circle cx="100" cy="215" r="1" fill="white" opacity="0.8" />
    <circle cx="130" cy="230" r="1" fill="white" opacity="0.7" />
    <circle cx="160" cy="210" r="1" fill="white" opacity="0.9" />
    <circle cx="190" cy="225" r="1" fill="white" opacity="0.7" />
    <circle cx="220" cy="215" r="1" fill="white" opacity="0.6" />
    <circle cx="240" cy="230" r="1" fill="white" opacity="0.8" />
  </g>
  
  <!-- Aurora effect ribbons in background -->
  <g opacity="0.6">
    <path d="M0,170 Q60,150 100,180 Q150,210 200,190 Q240,170 256,180" 
          fill="none" stroke="url(#aurora-green)" stroke-width="8" opacity="0.5" />
    
    <path d="M0,200 Q40,190 80,210 Q130,240 180,220 Q230,200 256,210" 
          fill="none" stroke="url(#aurora-blue)" stroke-width="6" opacity="0.4" />
    
    <path d="M0,140 Q50,120 90,140 Q140,170 190,150 Q240,130 256,140" 
          fill="none" stroke="url(#aurora-magenta)" stroke-width="10" opacity="0.3" />
  </g>
  
  <!-- Partial Derivatives Visual -->
  <g filter="url(#glow)">
    <!-- 3D Surface -->
    <path d="M78,168 Q128,98 178,168 Q103,118 78,168 Z" fill="#00C853" opacity="0.3" stroke="#00C853" stroke-width="1.5" />
    <path d="M78,168 Q128,98 178,168 Q153,118 178,168 Z" fill="#D500F9" opacity="0.3" stroke="#D500F9" stroke-width="1.5" />
    
    <!-- Tangent Plane -->
    <path d="M88,158 L168,158 L138,118 L88,128 Z" fill="#00E5FF" opacity="0.2" stroke="#00E5FF" stroke-width="1.5" />
    
    <!-- Grid lines -->
    <path d="M78,168 Q103,118 128,98 Q153,118 178,168" fill="none" stroke="white" stroke-width="1.5" opacity="0.7" />
    <path d="M78,168 Q103,143 128,128 Q153,143 178,168" fill="none" stroke="white" stroke-width="1.5" opacity="0.7" />
    <path d="M78,168 Q103,168 128,158 Q153,168 178,168" fill="none" stroke="white" stroke-width="1.5" opacity="0.7" />
    
    <path d="M78,168 L178,168" fill="none" stroke="white" stroke-width="1.5" opacity="0.7" />
    <path d="M98,153 L98,168" fill="none" stroke="white" stroke-width="1.5" opacity="0.7" />
    <path d="M118,138 L118,168" fill="none" stroke="white" stroke-width="1.5" opacity="0.7" />
    <path d="M138,138 L138,168" fill="none" stroke="white" stroke-width="1.5" opacity="0.7" />
    <path d="M158,153 L158,168" fill="none" stroke="white" stroke-width="1.5" opacity="0.7" />
    
    <!-- Gradient Vectors -->
    <line x1="128" y1="128" x2="108" y2="108" stroke="#00C853" stroke-width="3" />
    <polygon points="108,108 115,115 118,108" fill="#00C853" />
    
    <line x1="128" y1="128" x2="148" y2="118" stroke="#D500F9" stroke-width="3" />
    <polygon points="148,118 140,123 143,128" fill="#D500F9" />
    
    <!-- Point on surface -->
    <circle cx="128" cy="128" r="5" fill="white" />
    
    <!-- Partial derivative indicators -->
    <text x="110" y="100" fill="white" font-family="Arial" font-size="16" filter="url(#glow)">∂z/∂x</text>
    <text x="150" y="118" fill="white" font-family="Arial" font-size="16" filter="url(#glow)">∂z/∂y</text>
  </g>
</svg>
