<svg xmlns="http://www.w3.org/2000/svg" viewBox="0 0 256 256">
  <!-- Background gradient -->
  <defs>
    <linearGradient id="bg-gradient" x1="0%" y1="0%" x2="100%" y2="100%">
      <stop offset="0%" stop-color="#001B33" />
      <stop offset="100%" stop-color="#00142A" />
    </linearGradient>
    
    <!-- Glow effects -->
    <filter id="glow" x="-20%" y="-20%" width="140%" height="140%">
      <feGaussianBlur stdDeviation="3" result="blur" />
      <feComposite in="SourceGraphic" in2="blur" operator="over" />
    </filter>
    
    <!-- Aurora patterns -->
    <linearGradient id="aurora-green" x1="0%" y1="0%" x2="100%" y2="0%">
      <stop offset="0%" stop-color="#00C853" stop-opacity="0.7" />
      <stop offset="100%" stop-color="#00C853" stop-opacity="0.9" />
    </linearGradient>
    
    <linearGradient id="aurora-magenta" x1="0%" y1="0%" x2="100%" y2="0%">
      <stop offset="0%" stop-color="#D500F9" stop-opacity="0.7" />
      <stop offset="100%" stop-color="#D500F9" stop-opacity="0.9" />
    </linearGradient>
    
    <linearGradient id="aurora-blue" x1="0%" y1="0%" x2="100%" y2="0%">
      <stop offset="0%" stop-color="#00E5FF" stop-opacity="0.7" />
      <stop offset="100%" stop-color="#00E5FF" stop-opacity="0.9" />
    </linearGradient>
  </defs>
  
  <!-- Background -->
  <rect width="256" height="256" fill="url(#bg-gradient)" />
  
  <!-- Subtle star field -->
  <g>
    <circle cx="30" cy="40" r="1" fill="white" opacity="0.8" />
    <circle cx="60" cy="20" r="1" fill="white" opacity="0.6" />
    <circle cx="90" cy="35" r="1" fill="white" opacity="0.7" />
    <circle cx="120" cy="15" r="1" fill="white" opacity="0.9" />
    <circle cx="150" cy="25" r="1" fill="white" opacity="0.7" />
    <circle cx="180" cy="45" r="1" fill="white" opacity="0.6" />
    <circle cx="210" cy="30" r="1" fill="white" opacity="0.8" />
    <circle cx="240" cy="15" r="1" fill="white" opacity="0.7" />
    
    <circle cx="20" cy="70" r="1" fill="white" opacity="0.7" />
    <circle cx="50" cy="90" r="1" fill="white" opacity="0.8" />
    <circle cx="90" cy="75" r="1" fill="white" opacity="0.6" />
    <circle cx="130" cy="85" r="1" fill="white" opacity="0.7" />
    <circle cx="160" cy="65" r="1" fill="white" opacity="0.9" />
    <circle cx="200" cy="80" r="1" fill="white" opacity="0.6" />
    <circle cx="230" cy="70" r="1" fill="white" opacity="0.8" />
    
    <circle cx="25" cy="115" r="1" fill="white" opacity="0.8" />
    <circle cx="55" cy="135" r="1" fill="white" opacity="0.7" />
    <circle cx="85" cy="125" r="1" fill="white" opacity="0.6" />
    <circle cx="115" cy="145" r="1" fill="white" opacity="0.9" />
    <circle cx="145" cy="115" r="1" fill="white" opacity="0.7" />
    <circle cx="175" cy="130" r="1" fill="white" opacity="0.8" />
    <circle cx="215" cy="120" r="1" fill="white" opacity="0.6" />
    <circle cx="245" cy="135" r="1" fill="white" opacity="0.7" />
    
    <circle cx="35" cy="170" r="1" fill="white" opacity="0.6" />
    <circle cx="65" cy="185" r="1" fill="white" opacity="0.8" />
    <circle cx="95" cy="165" r="1" fill="white" opacity="0.7" />
    <circle cx="125" cy="180" r="1" fill="white" opacity="0.9" />
    <circle cx="155" cy="165" r="1" fill="white" opacity="0.7" />
    <circle cx="185" cy="185" r="1" fill="white" opacity="0.6" />
    <circle cx="225" cy="170" r="1" fill="white" opacity="0.8" />
    
    <circle cx="30" cy="210" r="1" fill="white" opacity="0.7" />
    <circle cx="60" cy="225" r="1" fill="white" opacity="0.6" />
    <circle cx="100" cy="215" r="1" fill="white" opacity="0.8" />
    <circle cx="130" cy="230" r="1" fill="white" opacity="0.7" />
    <circle cx="160" cy="210" r="1" fill="white" opacity="0.9" />
    <circle cx="190" cy="225" r="1" fill="white" opacity="0.7" />
    <circle cx="220" cy="215" r="1" fill="white" opacity="0.6" />
    <circle cx="240" cy="230" r="1" fill="white" opacity="0.8" />
  </g>
  
  <!-- 3D Coordinate System -->
  <g filter="url(#glow)">
    <!-- x-axis -->
    <line x1="128" y1="128" x2="208" y2="128" stroke="white" stroke-width="2" />
    <polygon points="208,128 198,123 198,133" fill="white" />
    
    <!-- y-axis -->
    <line x1="128" y1="128" x2="128" y2="48" stroke="white" stroke-width="2" />
    <polygon points="128,48 123,58 133,58" fill="white" />
    
    <!-- z-axis -->
    <line x1="128" y1="128" x2="78" y2="178" stroke="white" stroke-width="2" />
    <polygon points="78,178 88,173 83,168" fill="white" />
    
    <!-- Vector 1: Green vector -->
    <line x1="128" y1="128" x2="178" y2="98" stroke="url(#aurora-green)" stroke-width="4" />
    <polygon points="178,98 168,101 173,108" fill="#00C853" />
    
    <!-- Vector 2: Magenta vector -->
    <line x1="128" y1="128" x2="168" y2="148" stroke="url(#aurora-magenta)" stroke-width="4" />
    <polygon points="168,148 160,143 163,135" fill="#D500F9" />
    
    <!-- Vector 3: Cross product in Ice-Blue -->
    <line x1="128" y1="128" x2="108" y2="88" stroke="url(#aurora-blue)" stroke-width="4" />
    <polygon points="108,88 108,98 115,93" fill="#00E5FF" />
  </g>
  
  <!-- Aurora effect ribbons in background -->
  <g opacity="0.6">
    <path d="M0,170 Q60,150 100,180 Q150,210 200,190 Q240,170 256,180" 
          fill="none" stroke="url(#aurora-green)" stroke-width="8" opacity="0.5" />
    
    <path d="M0,200 Q40,190 80,210 Q130,240 180,220 Q230,200 256,210" 
          fill="none" stroke="url(#aurora-blue)" stroke-width="6" opacity="0.4" />
    
    <path d="M0,140 Q50,120 90,140 Q140,170 190,150 Q240,130 256,140" 
          fill="none" stroke="url(#aurora-magenta)" stroke-width="10" opacity="0.3" />
  </g>
</svg>
